<svg width="183" height="54" viewBox="0 0 183 54" fill="none" xmlns="http://www.w3.org/2000/svg">
<path d="M1.28125 53.2344C1.07292 53.026 0.96875 52.6354 0.96875 52.0625C0.96875 51.3333 1.07292 50.9688 1.28125 50.9688C1.75 50.9688 2.375 50.9167 3.15625 50.8125C3.9375 50.6562 4.66667 50.4479 5.34375 50.1875C6.02083 49.9271 6.41146 49.6667 6.51562 49.4062C6.72396 48.6771 6.85417 47.7396 6.90625 46.5938C7.01042 45.4479 7.0625 44.0677 7.0625 42.4531V12.1406C7.0625 10.526 7.01042 9.14583 6.90625 8C6.85417 6.80208 6.72396 5.86458 6.51562 5.1875C6.41146 4.875 6.02083 4.61458 5.34375 4.40625C4.66667 4.14583 3.9375 3.9375 3.15625 3.78125C2.375 3.625 1.75 3.54688 1.28125 3.54688C1.07292 3.54688 0.96875 3.20833 0.96875 2.53125C0.96875 1.90625 1.07292 1.48958 1.28125 1.28125L10.6562 1.67188C11.0729 1.67188 12.0365 1.64583 13.5469 1.59375C15.0573 1.48958 17.1146 1.38542 19.7188 1.28125C19.8229 1.69792 19.875 2.08854 19.875 2.45312C19.875 3.18229 19.7708 3.54688 19.5625 3.54688C19.25 3.54688 18.7031 3.65104 17.9219 3.85938C17.1406 4.01562 16.4115 4.22396 15.7344 4.48438C15.0573 4.69271 14.6667 4.92708 14.5625 5.1875C14.0938 6.95833 13.8594 9.38021 13.8594 12.4531V42.1406C13.8594 45.1615 14.0938 47.5833 14.5625 49.4062C14.6667 49.6146 15.0573 49.849 15.7344 50.1094C16.4115 50.3698 17.1406 50.5781 17.9219 50.7344C18.7031 50.8906 19.25 50.9688 19.5625 50.9688C19.7708 50.9688 19.875 51.3594 19.875 52.1406C19.875 52.4531 19.8229 52.8177 19.7188 53.2344C17.1146 53.1302 15.0573 53.0521 13.5469 53C12.0365 52.8958 11.0729 52.8438 10.6562 52.8438L1.28125 53.2344ZM51.0469 53.4688C47.6094 53.4688 44.3802 52.7917 41.3594 51.4375C38.3906 50.0833 35.7604 48.2344 33.4688 45.8906C31.2292 43.5469 29.4583 40.8385 28.1562 37.7656C26.9062 34.6406 26.2812 31.3333 26.2812 27.8438C26.2812 24.1458 26.9323 20.6823 28.2344 17.4531C29.5365 14.1719 31.3594 11.3073 33.7031 8.85938C36.0469 6.35938 38.7552 4.40625 41.8281 3C44.9531 1.59375 48.3125 0.890625 51.9062 0.890625C54.9792 0.890625 58.1042 1.04688 61.2812 1.35938C64.4583 1.67188 67.6615 2.16667 70.8906 2.84375L70.7344 14.0938C70.7344 14.875 70.1875 15.2656 69.0938 15.2656C68.5729 15.2656 68.2344 15.1354 68.0781 14.875C67.9219 14.1979 67.7135 13.5208 67.4531 12.8438C67.2448 12.1146 66.776 11.1771 66.0469 10.0312C64.7969 8.20833 63 6.77604 60.6562 5.73438C58.3646 4.69271 55.526 4.17188 52.1406 4.17188C49.5885 4.17188 47.1927 4.79688 44.9531 6.04688C42.7135 7.24479 40.7344 8.88542 39.0156 10.9688C37.349 13.0521 36.0469 15.4219 35.1094 18.0781C34.1719 20.6823 33.7031 23.3906 33.7031 26.2031C33.7031 30.526 34.4323 34.4062 35.8906 37.8438C37.349 41.3854 39.6406 44.3281 42.7656 46.6719C45.9427 48.9635 49.6927 50.1094 54.0156 50.1094C59.1719 50.1094 63.1562 48.599 65.9688 45.5781C66.8021 44.6927 67.4531 43.651 67.9219 42.4531C68.3906 41.2552 68.7552 40.2135 69.0156 39.3281C69.276 38.4427 69.5365 38 69.7969 38C70.1094 38 70.474 38.0521 70.8906 38.1562C71.3594 38.2083 71.724 38.3125 71.9844 38.4688L72.375 38.7031C72.375 39.0156 72.2708 39.7448 72.0625 40.8906C71.8542 42.0365 71.5938 43.3125 71.2812 44.7188C70.9688 46.0729 70.6562 47.2708 70.3438 48.3125C70.0833 49.3542 69.875 49.9271 69.7188 50.0312C65.8646 52.3229 59.6406 53.4688 51.0469 53.4688ZM77.0625 53.2344C76.9062 53.0781 76.8281 52.6875 76.8281 52.0625C76.8281 51.3333 76.9062 50.9688 77.0625 50.9688C77.5312 50.9688 78.1562 50.8906 78.9375 50.7344C79.7188 50.526 80.4479 50.2917 81.125 50.0312C81.8542 49.7708 82.2969 49.4844 82.4531 49.1719C82.8177 48.599 83 46.151 83 41.8281V12.2969C83 10.7865 82.9479 9.45833 82.8438 8.3125C82.7917 7.16667 82.6615 6.25521 82.4531 5.57812C82.349 5.26562 81.9323 4.97917 81.2031 4.71875C80.526 4.45833 79.7708 4.25 78.9375 4.09375C78.1562 3.9375 77.5312 3.85938 77.0625 3.85938C76.8542 3.85938 76.75 3.54688 76.75 2.92188C76.75 2.24479 76.8542 1.80208 77.0625 1.59375C78.4167 1.64583 79.849 1.69792 81.3594 1.75C82.9219 1.75 84.5885 1.75 86.3594 1.75L93.9375 1.67188C95.4479 1.67188 96.6979 1.67188 97.6875 1.67188C98.6771 1.61979 99.4323 1.59375 99.9531 1.59375C105.63 1.59375 110.474 2.76562 114.484 5.10938C118.495 7.40104 121.568 10.4479 123.703 14.25C125.839 18.0521 126.906 22.2188 126.906 26.75C126.906 31.75 125.812 36.2812 123.625 40.3438C121.49 44.4062 118.391 47.6094 114.328 49.9531C110.318 52.2969 105.5 53.3906 99.875 53.2344L94.3281 53.0781C92.7656 53.026 91.3333 53 90.0312 53C88.7292 52.9479 87.5573 52.9479 86.5156 53L77.0625 53.2344ZM101.125 49.6406C113.104 49.6406 119.094 41.9062 119.094 26.4375C119.094 22.4792 118.391 18.8854 116.984 15.6562C115.578 12.4271 113.495 9.84896 110.734 7.92188C108.026 5.99479 104.641 5.03125 100.578 5.03125H100.188C94.5625 5.03125 91.4375 5.44792 90.8125 6.28125C90.1354 7.16667 89.7969 8.80729 89.7969 11.2031V42.1406C89.7969 44.276 90.1875 46.2552 90.9688 48.0781C91.0729 48.3385 91.5156 48.5729 92.2969 48.7812C93.0781 48.9375 94.0156 49.0938 95.1094 49.25C96.2552 49.3542 97.375 49.4583 98.4688 49.5625C99.5625 49.6146 100.448 49.6406 101.125 49.6406ZM180.5 53.3906C173.26 53.3906 166.932 49.6406 161.516 42.1406C161.099 41.5677 160.552 40.7865 159.875 39.7969C159.25 38.8073 158.078 37.0625 156.359 34.5625C155.526 33.3646 154.771 32.375 154.094 31.5938C153.469 30.7604 152.714 30.1354 151.828 29.7188C150.995 29.3021 149.849 29.0938 148.391 29.0938C147.818 29.0938 147.349 29.1719 146.984 29.3281C146.672 29.4844 146.516 29.849 146.516 30.4219V41.9062C146.516 45.3438 146.724 47.6094 147.141 48.7031C147.349 49.1198 147.844 49.5104 148.625 49.875C149.458 50.2396 150.344 50.526 151.281 50.7344C152.219 50.8906 152.896 50.9688 153.312 50.9688C153.521 50.9688 153.625 51.3333 153.625 52.0625C153.625 52.4271 153.573 52.8177 153.469 53.2344C150.865 53.1302 148.703 53.026 146.984 52.9219C145.318 52.8177 144.094 52.7917 143.312 52.8438L133.781 53.2344C133.625 53.0781 133.547 52.6094 133.547 51.8281C133.547 51.151 133.625 50.8125 133.781 50.8125C134.302 50.8125 134.927 50.7344 135.656 50.5781C136.438 50.4219 137.167 50.2396 137.844 50.0312C138.573 49.7708 139.016 49.4844 139.172 49.1719C139.536 48.599 139.719 46.151 139.719 41.8281V12.2969C139.719 10.7865 139.667 9.45833 139.562 8.3125C139.51 7.16667 139.38 6.25521 139.172 5.57812C139.068 5.26562 138.651 4.97917 137.922 4.71875C137.245 4.45833 136.49 4.25 135.656 4.09375C134.875 3.9375 134.25 3.85938 133.781 3.85938C133.573 3.85938 133.469 3.54688 133.469 2.92188C133.469 2.24479 133.573 1.80208 133.781 1.59375L143.156 1.75C144.667 1.80208 146.516 1.77604 148.703 1.67188C150.891 1.51562 152.714 1.4375 154.172 1.4375C156.984 1.4375 159.667 1.98438 162.219 3.07812C164.823 4.17188 166.932 5.78646 168.547 7.92188C170.214 10.0573 171.047 12.6615 171.047 15.7344C171.047 17.9219 170.214 20.2135 168.547 22.6094C166.932 25.0052 164.719 26.8542 161.906 28.1562C161.385 28.3646 161.229 28.625 161.438 28.9375C163.99 34.3542 166.984 38.9375 170.422 42.6875C175.422 48.1562 179.484 50.8906 182.609 50.8906C182.766 51.2031 182.844 51.5677 182.844 51.9844C182.844 52.4531 182.766 52.8438 182.609 53.1562C182.089 53.3125 181.385 53.3906 180.5 53.3906ZM153.312 25.7344H155.266C156.516 25.7344 157.792 25.3177 159.094 24.4844C160.448 23.651 161.568 22.4792 162.453 20.9688C163.391 19.4583 163.859 17.7135 163.859 15.7344C163.859 8.49479 160.214 4.875 152.922 4.875C150.526 4.875 148.703 5.05729 147.453 5.42188C146.984 5.52604 146.698 6.38542 146.594 8C146.542 9.5625 146.516 11.5677 146.516 14.0156V23.4688C146.516 24.9792 148.781 25.7344 153.312 25.7344Z" fill="#F8F8F8"/>
</svg>
